<svg width="35" height="35" viewBox="0 0 35 35" fill="none" xmlns="http://www.w3.org/2000/svg">
<path d="M13.1831 31.6607H21.5938C28.6027 31.6607 31.4063 28.8571 31.4063 21.8482V13.4375C31.4063 6.42857 28.6027 3.625 21.5938 3.625H13.1831C6.17418 3.625 3.37061 6.42857 3.37061 13.4375V21.8482C3.37061 28.8571 6.17418 31.6607 13.1831 31.6607ZM22.6452 13.4375H12.1318ZM22.6452 21.8482H12.1318Z" fill="#085E3B"/>
<path d="M22.6452 13.4375H12.1318M22.6452 21.8482H12.1318M13.1831 31.6607H21.5938C28.6027 31.6607 31.4063 28.8571 31.4063 21.8482V13.4375C31.4063 6.42857 28.6027 3.625 21.5938 3.625H13.1831C6.17418 3.625 3.37061 6.42857 3.37061 13.4375V21.8482C3.37061 28.8571 6.17418 31.6607 13.1831 31.6607Z" stroke="white" stroke-width="2.10268" stroke-linecap="round" stroke-linejoin="round"/>
</svg>
