<svg width="32" height="31" viewBox="0 0 32 31" fill="none" xmlns="http://www.w3.org/2000/svg">
<path d="M5.66412 4.62929L4.40243 6.2064L2.0601 9.88721C2.01504 9.95801 1.98238 10.036 1.9635 10.1178L0.984399 14.3605C0.967554 14.4335 0.961907 14.5087 0.967653 14.5834L1.29314 18.8148C1.29988 18.9023 1.32217 18.988 1.35898 19.0677L3.33384 23.3466C3.35747 23.3978 3.38687 23.4461 3.42148 23.4906L5.71566 26.4403C5.75822 26.495 5.80826 26.5434 5.86431 26.5842L9.46801 29.2051C9.53395 29.253 9.60738 29.2897 9.68531 29.3137L13.9379 30.6222C14.0083 30.6439 14.0815 30.6549 14.1552 30.6549H17.7409C17.8013 30.6549 17.8615 30.6475 17.9201 30.6328L21.8532 29.6495C21.9266 29.6312 21.9968 29.6017 22.0613 29.562L26.3478 26.9241C26.4093 26.8863 26.4649 26.8397 26.5128 26.7857L29.0643 23.9153C29.1501 23.8188 29.2091 23.7015 29.2354 23.5751L30.9014 15.5783C30.9118 15.5287 30.917 15.4782 30.917 15.4276V12.5081C30.917 12.4394 30.9074 12.3711 30.8885 12.3051L30.2472 10.0602C30.2346 10.0163 30.218 9.97363 30.1976 9.93277L29.225 7.98772C29.2052 7.94807 29.1819 7.91028 29.1553 7.87482L27.1855 5.24841C27.1481 5.19858 27.1046 5.15368 27.0559 5.11477L25.4075 3.79599L22.4315 1.48133C22.3503 1.41819 22.2568 1.37269 22.157 1.34774L18.2645 0.374601C18.2059 0.359948 18.1457 0.352539 18.0853 0.352539H15.5731C15.4731 0.352539 15.374 0.372865 15.2821 0.412283L5.95003 4.41172C5.83828 4.45962 5.74007 4.53435 5.66412 4.62929Z" fill="white"/>
<path d="M15.221 0.0151963C13.4328 0.119383 12.0275 0.400445 10.535 0.94803C9.1612 1.45443 7.705 2.29034 6.53472 3.24256C3.46485 5.74546 1.39323 9.5083 0.843223 13.5813C0.739036 14.3566 0.709961 14.8218 0.709961 15.7377C0.709961 16.5857 0.722076 16.8401 0.806879 17.5549C0.974062 18.9747 1.32539 20.208 1.96989 21.6303C3.82587 25.7299 7.53298 29.0494 11.6956 30.3432C13.2269 30.8181 14.4747 30.995 16.3355 30.9998C17.3629 31.0023 17.6803 30.9804 18.5646 30.8545C20.3988 30.5928 22.2572 29.9531 23.9121 29.013C25.4943 28.1141 26.8317 26.9923 28.0287 25.5627C28.1789 25.3834 28.3606 25.1654 28.4333 25.0806C28.6489 24.8286 29.0197 24.3173 29.2668 23.9394C30.3184 22.3257 31.0622 20.3558 31.3675 18.3787C31.5104 17.4604 31.5492 16.9056 31.5492 15.8952C31.5516 14.5262 31.4256 13.4262 31.1252 12.1638C30.1924 8.25563 27.6628 4.59699 24.3797 2.40664C23.3451 1.71368 22.0949 1.10552 20.9512 0.732388C20.4303 0.560359 19.3255 0.310796 18.6373 0.209032C18.1552 0.136344 17.9226 0.109691 17.3653 0.0588093C16.9922 0.0248881 15.5432 -0.00418727 15.221 0.0151963ZM17.4622 0.584589C18.269 0.645162 19.3303 0.841421 20.1371 1.08129C20.4739 1.18063 21.0821 1.41566 21.4964 1.60465C22.468 2.05289 23.0956 2.57867 23.4275 3.2256C23.5608 3.48485 23.5583 3.53816 23.4105 3.92583C23.0423 4.89743 22.4462 5.8448 21.62 6.77279C21.4383 6.97874 21.4189 6.99328 21.2759 7.03205C21.0675 7.08778 20.7526 7.1217 20.2147 7.14835C19.9603 7.16289 19.6477 7.18469 19.5217 7.19681C18.9378 7.25738 17.4937 7.33976 16.7353 7.35672L16.0448 7.37126L15.6571 6.9642C14.4456 5.68731 13.3626 4.47826 13.1445 4.15601C12.9458 3.86041 12.8828 3.49212 12.9652 3.11657C13.1179 2.43814 13.8375 1.60223 14.8454 0.933493C15.3664 0.589434 15.3736 0.587012 16.1054 0.560359C16.5948 0.540976 16.9994 0.550667 17.4622 0.584589ZM24.7892 4.01063C25 4.06636 25.2374 4.17297 25.6396 4.39588C25.8408 4.50734 26.0588 4.62606 26.1267 4.65998C26.4441 4.8199 27.3696 5.74789 27.9439 6.48204C29.1384 8.00849 30.0179 9.95412 30.3838 11.8852C30.4686 12.3238 30.4807 12.5006 30.4492 12.7841C30.362 13.591 30.0155 14.2621 29.0245 15.556C28.741 15.9243 28.7362 15.9315 28.6029 15.9727L28.4672 16.0139L28.1668 15.8782C26.6161 15.1828 25.2084 14.3808 24.1229 13.5788L23.8176 13.3535L23.694 13.0894C23.3548 12.365 23.0907 11.6211 22.6085 10.0195C22.4147 9.37988 22.2184 8.74265 22.1748 8.60212C22.0561 8.23625 22.0392 8.14418 22.0392 7.84131C22.0392 7.48514 22.1118 7.20165 22.3033 6.80429C22.4753 6.44569 22.6546 6.1719 23.1997 5.44259C23.4275 5.1373 23.6795 4.77144 23.7643 4.63091C24.0526 4.14147 24.1277 4.05425 24.3095 3.99852C24.4209 3.96702 24.6365 3.97187 24.7892 4.01063ZM12.1414 4.18024C12.4782 4.24081 12.7835 4.43707 12.9943 4.73267C13.0936 4.87078 13.2899 5.09854 13.6824 5.52498C14.5159 6.436 14.843 6.86729 15.0877 7.37853C15.284 7.79043 15.3494 8.03515 15.3712 8.43493C15.3857 8.70873 15.3833 8.72326 15.3058 8.94375C15.2646 9.06974 15.1289 9.45499 15.0102 9.80147C14.5692 11.0735 14.1161 12.4619 13.995 12.898L13.9368 13.1112L12.9555 13.6637C11.8652 14.2815 11.1625 14.6667 10.5447 14.9866C10.3194 15.1053 10.0795 15.2434 10.0116 15.2967C9.72816 15.522 9.35018 15.648 9.05459 15.6165C8.87529 15.5972 8.61361 15.5099 8.43431 15.4082C8.08541 15.2095 7.53298 14.7055 6.85697 13.9665C5.99683 13.024 5.72061 12.6169 5.5825 12.079L5.53162 11.8755L5.58493 11.7108C5.614 11.6211 5.77634 11.122 5.94352 10.6035C6.11071 10.085 6.30697 9.50345 6.37723 9.30719C7.029 7.51179 7.68562 6.44327 8.61361 5.66793C8.9504 5.38929 9.19269 5.23664 9.83962 4.89986C10.85 4.37408 11.2522 4.21901 11.7562 4.16086C11.8967 4.1439 11.9524 4.14632 12.1414 4.18024ZM6.3215 5.14215C6.69948 5.33114 6.96601 5.72123 7.04354 6.20582L7.07262 6.38997L6.91028 6.68314C6.05498 8.24352 5.27237 10.366 4.83866 12.3213C4.7369 12.7744 4.54548 13.0773 3.94217 13.7388C3.76772 13.9326 3.57146 14.1555 3.51089 14.2355C3.44789 14.3154 3.2274 14.5819 3.01903 14.8291C2.78158 15.1126 2.60713 15.3428 2.54898 15.4518C2.50052 15.5487 2.41571 15.6771 2.36483 15.7353C2.26307 15.8491 2.05712 15.9679 1.9602 15.9679C1.84148 15.9679 1.70579 15.9073 1.60645 15.8104C1.38354 15.5947 1.29631 15.2483 1.34477 14.7903C1.35931 14.6449 1.37869 14.4051 1.38596 14.2597C1.40535 13.8963 1.43927 13.5764 1.50953 13.1354C1.88994 10.7634 2.96088 8.42282 4.77809 5.98533C4.87258 5.85934 4.98646 5.69216 5.0325 5.61462C5.18272 5.36506 5.41532 5.16396 5.65762 5.07188C5.71334 5.0525 5.82238 5.04281 5.94352 5.04523C6.11313 5.0525 6.16159 5.06462 6.3215 5.14215ZM14.5208 14.1725C15.4124 14.5577 16.2871 15.1416 17.2199 15.9679C17.53 16.2417 18.2375 16.8959 18.3393 17.0025L18.429 17.0945L18.3199 17.9426C18.0825 19.8325 17.879 21.0924 17.6294 22.2191C17.4961 22.8127 17.4065 22.9823 17.0285 23.3579C16.619 23.7625 16.1441 24.0339 15.2816 24.3561C13.9804 24.8407 13.6533 24.9328 13.2608 24.9328C12.8828 24.9328 12.2941 24.7729 11.8531 24.5499C11.4194 24.3343 11.0269 24.0726 10.1546 23.4184C9.83235 23.1786 9.48102 22.9169 9.36957 22.8369C8.98917 22.5607 8.63784 22.1367 8.40524 21.6739C8.1799 21.2232 8.08541 20.8501 8.06845 20.3292C8.05391 19.9391 8.08056 19.6701 8.16779 19.2873C8.20171 19.1468 8.24048 18.9021 8.25501 18.7421C8.3907 17.3053 8.98432 16.2804 9.96319 15.791C10.0577 15.745 10.2297 15.6723 10.3484 15.6311C10.6222 15.5342 10.8645 15.4203 11.3079 15.1804C12.5218 14.5238 12.8441 14.3712 13.3432 14.2258C13.6218 14.1434 13.9586 14.0828 14.1694 14.0804C14.276 14.078 14.3487 14.0974 14.5208 14.1725ZM24.324 14.4729C26.0637 15.3209 27.091 15.9461 28.0456 16.7335L28.3 16.9419L28.2831 17.0921C28.2758 17.1721 28.2419 17.5719 28.208 17.9789C28.082 19.532 28.0166 20.0675 27.8663 20.7653C27.7621 21.2499 27.4956 21.6788 26.9844 22.1973C26.5264 22.66 26.2284 22.8805 24.8231 23.8061C24.5396 23.9927 24.1762 24.2447 24.0163 24.3634C23.3621 24.8552 22.8896 25.1096 22.5189 25.1726C22.3638 25.1993 22.3372 25.1969 22.0803 25.129C20.9803 24.8359 19.827 24.2495 18.5041 23.3142C18.2206 23.1131 18.1164 23.0259 18.1164 22.9896C18.1164 22.9072 18.2351 22.0252 18.3248 21.4316C18.429 20.7483 18.8166 18.4126 18.8312 18.3908C18.836 18.3811 18.8699 18.1631 18.9039 17.9038C19.0177 17.0412 19.0638 16.9492 19.6307 16.5251C19.7785 16.4137 20.1202 16.1423 20.394 15.9218C21.0457 15.3936 21.3438 15.1635 21.6539 14.9551C22.3735 14.4729 22.9889 14.2258 23.6334 14.1531C23.648 14.1531 23.9605 14.296 24.324 14.4729ZM1.86813 16.7238C1.8754 16.7553 1.9069 16.9589 1.94324 17.1793C2.14434 18.4441 2.5514 19.8349 3.09656 21.1166C3.28313 21.56 3.76772 22.5462 3.87433 22.6964C4.06089 22.9702 4.11178 23.3651 4.01486 23.8037C3.98821 23.9224 3.96398 24.0242 3.95913 24.029C3.94702 24.0411 3.37036 23.0744 3.11837 22.6213C2.83246 22.1076 2.42298 21.2547 2.23884 20.7895C1.99897 20.1862 1.62583 18.9069 1.49015 18.2212C1.44654 17.9983 1.43442 17.8602 1.43442 17.5307C1.43442 17.1357 1.43684 17.1139 1.49742 16.9855C1.57253 16.8304 1.64279 16.7505 1.74698 16.7044C1.84875 16.6608 1.85601 16.6633 1.86813 16.7238ZM28.9906 22.018C29.2232 22.127 29.2668 22.4711 29.1045 22.9096C28.9979 23.1979 28.8864 23.3845 28.3437 24.1938C27.4569 25.5167 26.1993 26.7354 24.6705 27.7603C23.6649 28.4315 22.3105 29.1414 21.7024 29.3135C21.5013 29.3692 21.4261 29.3765 21.1209 29.3789C20.8059 29.3789 20.7574 29.374 20.6508 29.3231C20.4788 29.2456 20.3794 29.1632 20.3067 29.0397L20.2437 28.9331L20.5054 28.5502C21.259 27.4454 21.6878 26.8929 22.2451 26.3211C22.6522 25.8995 22.8872 25.7057 23.2409 25.4876C23.9 25.0878 24.5009 24.6735 25.9183 23.6486C27.0256 22.8466 27.2848 22.6649 27.8348 22.299C28.2152 22.047 28.2492 22.0277 28.4163 22.001C28.5157 21.9865 28.6126 21.9695 28.632 21.9647C28.6998 21.9501 28.9106 21.9816 28.9906 22.018ZM7.51602 22.1827C7.77769 22.2166 7.89399 22.2675 8.18233 22.4807C8.55061 22.7545 8.9189 23.0429 9.4786 23.5032C10.77 24.5645 11.2934 24.9473 11.9912 25.3422C12.2601 25.4949 12.3013 25.5288 12.4152 25.6766C12.8198 26.2169 13.1566 26.939 13.2996 27.5883C13.3408 27.7725 13.3529 27.9106 13.3529 28.1916C13.3553 28.6181 13.3117 28.8022 13.1494 29.0469C13.0549 29.1875 13.0452 29.1947 12.8756 29.2456C12.4419 29.3789 11.9742 29.4395 11.3806 29.4395H10.9978L10.6634 29.328C9.12485 28.8192 7.57417 27.8742 6.12282 26.5586C5.5922 26.0764 5.17303 25.6669 5.08338 25.5385C4.87016 25.2332 4.72478 24.8528 4.65452 24.4118C4.63271 24.2616 4.6109 23.9272 4.60363 23.5372L4.5891 22.9048L4.70782 22.8757C4.77082 22.8587 5.00584 22.7812 5.22633 22.6988C6.416 22.2675 6.62437 22.2045 6.99508 22.1706C7.19861 22.1537 7.28099 22.1537 7.51602 22.1827ZM17.1593 29.4637C17.53 29.4952 17.9347 29.5461 18.395 29.6187C18.5961 29.6527 18.8457 29.6914 18.9523 29.706C19.3497 29.7665 19.5944 29.8804 19.5605 29.9895C19.5314 30.0791 19.2818 30.1639 18.916 30.2124C18.8166 30.2245 18.5865 30.2584 18.4072 30.2851C18.2279 30.3141 17.8014 30.3626 17.4622 30.3965C15.5142 30.5903 14.0992 30.4668 13.0646 30.0088C12.8925 29.9313 12.8901 29.9337 13.2826 29.8174C14.0071 29.6042 14.6564 29.4976 15.645 29.4298C15.8582 29.4152 16.8419 29.437 17.1593 29.4637Z" fill="#085E3B"/>
</svg>
