<svg width="56" height="55" viewBox="0 0 56 55" fill="none" xmlns="http://www.w3.org/2000/svg">
<path d="M14.6611 6.87505L17.681 6.87519C18.8889 8.08333 24.9288 8.08333 26.1368 6.87519H29.1567C29.8239 6.87519 30.3647 7.41602 30.3647 8.08316V12.9148C30.3647 13.5794 30.9131 14.0611 31.4065 14.3601C31.8446 14.6255 32.1825 15.0656 32.1902 15.5777C32.2272 18.0361 32.3207 25.2998 32.2228 30.4302C32.2187 30.649 32.2141 30.8638 32.2093 31.0743C32.1941 31.7256 31.6597 32.2422 31.0083 32.2422H12.8491C12.1819 32.2422 11.6411 31.7014 11.6411 31.0342V30.4302V15.5974C11.6411 15.0775 11.9838 14.6278 12.4258 14.3539C12.9467 14.0311 13.4531 13.5405 13.4531 12.9148V8.08239C13.4531 7.41523 13.9939 6.87502 14.6611 6.87505Z" fill="#085E3B"/>
<path d="M17.681 6.87519L14.6611 6.87505C13.9939 6.87502 13.4531 7.41523 13.4531 8.08239C13.4531 9.81911 13.4531 12.1496 13.4531 12.9148C13.4531 13.5405 12.9467 14.0311 12.4258 14.3539C11.9838 14.6278 11.6411 15.0775 11.6411 15.5974V30.4302M17.681 6.87519C18.8889 8.08333 24.9288 8.08333 26.1368 6.87519M17.681 6.87519C18.8889 11.7068 24.9288 11.7068 26.1368 6.87519M26.1368 6.87519H29.1567C29.8239 6.87519 30.3647 7.41602 30.3647 8.08316V12.9148C30.3647 13.5794 30.9131 14.0611 31.4065 14.3601C31.8446 14.6255 32.1825 15.0656 32.1902 15.5777C32.2272 18.0361 32.3207 25.2998 32.2228 30.4302M11.6411 30.4302V31.0342C11.6411 31.7014 12.1819 32.2422 12.8491 32.2422H31.0083C31.6597 32.2422 32.1941 31.7256 32.2093 31.0743C32.2141 30.8638 32.2187 30.649 32.2228 30.4302M11.6411 30.4302H32.2228" stroke="white" stroke-width="1.20797"/>
<path d="M24.8463 24.3742L23.8122 25.6668L21.9023 28.6681C21.8687 28.7209 21.8443 28.779 21.8302 28.84L21.0302 32.307C21.0176 32.3614 21.0134 32.4174 21.0177 32.4731L21.2837 35.9316C21.2888 35.9968 21.3054 36.0607 21.3328 36.1202L22.9454 39.614C22.963 39.6522 22.9849 39.6882 23.0107 39.7214L24.8847 42.1308C24.9164 42.1716 24.9537 42.2077 24.9955 42.2381L27.9393 44.379C27.9885 44.4148 28.0432 44.4422 28.1013 44.4601L31.5756 45.5291C31.6281 45.5452 31.6827 45.5534 31.7376 45.5534H34.6679C34.713 45.5534 34.7579 45.5479 34.8016 45.537L38.0143 44.7338C38.069 44.7201 38.1213 44.6981 38.1694 44.6685L41.669 42.5149C41.7148 42.4867 41.7562 42.452 41.792 42.4118L43.8812 40.0614C43.9452 39.9894 43.9892 39.902 44.0088 39.8077L45.3677 33.2849C45.3754 33.248 45.3793 33.2103 45.3793 33.1726V30.7857C45.3793 30.7345 45.3722 30.6835 45.3581 30.6343L44.8332 28.7971C44.8238 28.7643 44.8114 28.7325 44.7962 28.7021L44.001 27.1117C43.9863 27.0822 43.9688 27.054 43.949 27.0276L42.3402 24.8825C42.3124 24.8454 42.2799 24.8119 42.2437 24.7829L40.8978 23.7062L38.4688 21.817C38.4082 21.7699 38.3385 21.7359 38.2641 21.7173L35.0817 20.9217C35.038 20.9108 34.9931 20.9053 34.948 20.9053H32.8882C32.8136 20.9053 32.7398 20.9204 32.6712 20.9498L25.0595 24.212C24.9761 24.2477 24.9029 24.3034 24.8463 24.3742Z" fill="white" stroke="#DCDADA" stroke-width="0.229167"/>
<mask id="path-4-inside-1_102_11" fill="white">
<path d="M32.612 20.6297C31.1575 20.7145 30.0144 20.9431 28.8004 21.3885C27.6829 21.8004 26.4984 22.4804 25.5465 23.2549C23.0494 25.2908 21.3644 28.3515 20.917 31.6645C20.8322 32.2952 20.8086 32.6736 20.8086 33.4185C20.8086 34.1083 20.8184 34.3153 20.8874 34.8967C21.0234 36.0516 21.3092 37.0547 21.8334 38.2116C23.3431 41.5463 26.3585 44.2463 29.7444 45.2988C30.99 45.6851 32.0049 45.8289 33.5186 45.8329C34.3542 45.8348 34.6124 45.8171 35.3317 45.7146C36.8237 45.5018 38.3353 44.9815 39.6814 44.2168C40.9683 43.4856 42.0562 42.5731 43.0298 41.4103C43.152 41.2645 43.2998 41.0871 43.359 41.0181C43.5344 40.8131 43.8359 40.3973 44.0369 40.0898C44.8923 38.7773 45.4973 37.175 45.7457 35.5668C45.8619 34.8198 45.8935 34.3685 45.8935 33.5466C45.8954 32.4331 45.793 31.5383 45.5486 30.5115C44.7898 27.3326 42.7322 24.3566 40.0618 22.575C39.2202 22.0113 38.2032 21.5166 37.273 21.2131C36.8493 21.0732 35.9506 20.8702 35.3909 20.7874C34.9987 20.7283 34.8095 20.7066 34.3562 20.6652C34.0527 20.6376 32.8741 20.614 32.612 20.6297ZM34.435 21.0929C35.0913 21.1422 35.9545 21.3018 36.6108 21.4969C36.8848 21.5777 37.3794 21.7689 37.7164 21.9226C38.5068 22.2872 39.0172 22.7149 39.2872 23.2411C39.3956 23.452 39.3936 23.4953 39.2734 23.8107C38.9738 24.601 38.489 25.3716 37.817 26.1264C37.6691 26.2939 37.6534 26.3058 37.5371 26.3373C37.3676 26.3826 37.1114 26.4102 36.6739 26.4319C36.4669 26.4437 36.2127 26.4615 36.1102 26.4713C35.6352 26.5206 34.4606 26.5876 33.8437 26.6014L33.2821 26.6132L32.9667 26.2821C31.9813 25.2435 31.1003 24.26 30.923 23.9979C30.7613 23.7575 30.7101 23.4579 30.7771 23.1524C30.9013 22.6006 31.4866 21.9206 32.3065 21.3767C32.7302 21.0968 32.7361 21.0949 33.3313 21.0732C33.7294 21.0574 34.0586 21.0653 34.435 21.0929ZM40.3948 23.8797C40.5663 23.925 40.7594 24.0117 41.0866 24.193C41.2502 24.2837 41.4275 24.3802 41.4827 24.4078C41.7409 24.5379 42.4938 25.2927 42.9609 25.8899C43.9325 27.1315 44.6479 28.7141 44.9455 30.2849C45.0145 30.6416 45.0243 30.7855 44.9987 31.0161C44.9278 31.6724 44.6459 32.2183 43.8399 33.2707C43.6093 33.5703 43.6053 33.5762 43.4969 33.6097L43.3866 33.6432L43.1422 33.5328C41.8808 32.9672 40.7358 32.3149 39.8528 31.6625L39.6045 31.4792L39.504 31.2644C39.2281 30.6751 39.0133 30.0701 38.6211 28.7673C38.4634 28.247 38.3038 27.7287 38.2683 27.6144C38.1717 27.3168 38.1579 27.2419 38.1579 26.9956C38.1579 26.7058 38.217 26.4753 38.3727 26.152C38.5127 25.8604 38.6585 25.6376 39.102 25.0444C39.2872 24.7961 39.4922 24.4985 39.5612 24.3842C39.7957 23.9861 39.8568 23.9151 40.0046 23.8698C40.0953 23.8442 40.2707 23.8481 40.3948 23.8797ZM30.107 24.0176C30.381 24.0669 30.6293 24.2265 30.8008 24.467C30.8816 24.5793 31.0412 24.7646 31.3605 25.1114C32.0385 25.8525 32.3045 26.2033 32.5036 26.6191C32.6632 26.9542 32.7164 27.1532 32.7342 27.4784C32.746 27.7011 32.744 27.7129 32.6809 27.8923C32.6474 27.9948 32.5371 28.3081 32.4405 28.59C32.0818 29.6247 31.7133 30.754 31.6147 31.1087L31.5674 31.2821L30.7692 31.7315C29.8824 32.2341 29.3108 32.5474 28.8082 32.8076C28.625 32.9041 28.4298 33.0165 28.3747 33.0598C28.1441 33.2431 27.8366 33.3456 27.5962 33.32C27.4503 33.3042 27.2375 33.2333 27.0916 33.1505C26.8078 32.9889 26.3585 32.579 25.8086 31.9778C25.109 31.2112 24.8843 30.8801 24.772 30.4426L24.7306 30.277L24.7739 30.143C24.7976 30.0701 24.9296 29.6641 25.0656 29.2423C25.2016 28.8206 25.3612 28.3476 25.4184 28.1879C25.9486 26.7275 26.4826 25.8584 27.2375 25.2277C27.5114 25.0011 27.7085 24.8769 28.2347 24.603C29.0566 24.1753 29.3837 24.0491 29.7937 24.0018C29.908 23.9881 29.9533 23.99 30.107 24.0176ZM25.3731 24.8C25.6805 24.9538 25.8973 25.2711 25.9604 25.6652L25.984 25.815L25.852 26.0535C25.1563 27.3227 24.5197 29.0492 24.1669 30.6396C24.0841 31.0082 23.9284 31.2545 23.4377 31.7926C23.2958 31.9503 23.1362 32.1316 23.0869 32.1966C23.0356 32.2616 22.8563 32.4784 22.6868 32.6795C22.4937 32.9101 22.3518 33.0973 22.3045 33.186C22.265 33.2648 22.1961 33.3693 22.1547 33.4166C22.0719 33.5092 21.9044 33.6058 21.8255 33.6058C21.729 33.6058 21.6186 33.5565 21.5378 33.4777C21.3565 33.3023 21.2855 33.0204 21.325 32.6479C21.3368 32.5297 21.3525 32.3346 21.3585 32.2163C21.3742 31.9207 21.4018 31.6605 21.459 31.3018C21.7684 29.3724 22.6395 27.4686 24.1176 25.4859C24.1945 25.3834 24.2871 25.2474 24.3246 25.1844C24.4468 24.9814 24.636 24.8178 24.8331 24.7429C24.8784 24.7271 24.9671 24.7192 25.0656 24.7212C25.2036 24.7271 25.243 24.737 25.3731 24.8ZM32.0424 32.1454C32.7677 32.4587 33.4791 32.9337 34.2379 33.6058C34.4902 33.8285 35.0657 34.3606 35.1484 34.4473L35.2214 34.5222L35.1327 35.212C34.9395 36.7493 34.774 37.7741 34.571 38.6905C34.4626 39.1734 34.3897 39.3114 34.0822 39.6168C33.7491 39.946 33.3629 40.1667 32.6612 40.4288C31.6029 40.823 31.3368 40.8979 31.0176 40.8979C30.7101 40.8979 30.2312 40.7678 29.8725 40.5865C29.5197 40.4111 29.2004 40.1982 28.4909 39.6661C28.2288 39.471 27.943 39.2581 27.8524 39.1931C27.543 38.9684 27.2572 38.6235 27.068 38.2471C26.8847 37.8805 26.8078 37.577 26.794 37.1533C26.7822 36.836 26.8039 36.6172 26.8748 36.3058C26.9024 36.1915 26.934 35.9925 26.9458 35.8624C27.0562 34.6937 27.539 33.86 28.3352 33.4619C28.4121 33.4244 28.552 33.3653 28.6486 33.3318C28.8713 33.253 29.0684 33.1604 29.4291 32.9652C30.4164 32.4311 30.6786 32.307 31.0846 32.1887C31.3112 32.1217 31.5852 32.0724 31.7566 32.0705C31.8433 32.0685 31.9025 32.0843 32.0424 32.1454ZM40.0164 32.3898C41.4315 33.0795 42.2671 33.588 43.0436 34.2285L43.2506 34.398L43.2368 34.5202C43.2309 34.5853 43.2033 34.9105 43.1757 35.2416C43.0732 36.5049 43.02 36.9404 42.8978 37.508C42.813 37.9022 42.5963 38.251 42.1804 38.6728C41.8079 39.0492 41.5655 39.2286 40.4224 39.9814C40.1918 40.1332 39.8962 40.3382 39.7661 40.4347C39.234 40.8348 38.8497 41.0417 38.5481 41.093C38.422 41.1147 38.4003 41.1127 38.1914 41.0575C37.2967 40.819 36.3585 40.3421 35.2825 39.5814C35.0519 39.4178 34.9671 39.3468 34.9671 39.3173C34.9671 39.2503 35.0637 38.5329 35.1366 38.05C35.2214 37.4942 35.5367 35.5943 35.5485 35.5766C35.5525 35.5687 35.5801 35.3913 35.6076 35.1805C35.7003 34.4788 35.7377 34.404 36.1989 34.0591C36.3191 33.9684 36.597 33.7477 36.8197 33.5683C37.3499 33.1387 37.5923 32.9514 37.8446 32.7819C38.4299 32.3898 38.9305 32.1887 39.4547 32.1296C39.4666 32.1296 39.7208 32.2459 40.0164 32.3898ZM21.7507 34.2207C21.7566 34.2463 21.7822 34.4118 21.8118 34.5912C21.9753 35.62 22.3064 36.7512 22.7499 37.7938C22.9016 38.1545 23.2958 38.9566 23.3825 39.0788C23.5343 39.3015 23.5757 39.6227 23.4968 39.9795C23.4751 40.076 23.4554 40.1588 23.4515 40.1628C23.4416 40.1726 22.9726 39.3862 22.7676 39.0177C22.5351 38.5999 22.202 37.9061 22.0522 37.5277C21.8571 37.037 21.5536 35.9964 21.4432 35.4386C21.4077 35.2573 21.3979 35.145 21.3979 34.877C21.3979 34.5557 21.3998 34.538 21.4491 34.4335C21.5102 34.3074 21.5674 34.2423 21.6521 34.2049C21.7349 34.1694 21.7408 34.1714 21.7507 34.2207ZM43.8123 38.527C44.0015 38.6156 44.0369 38.8955 43.9049 39.2522C43.8182 39.4868 43.7275 39.6385 43.286 40.2968C42.5647 41.3729 41.5419 42.3642 40.2983 43.1979C39.4804 43.7438 38.3787 44.3212 37.884 44.4612C37.7204 44.5065 37.6593 44.5124 37.411 44.5144C37.1548 44.5144 37.1153 44.5104 37.0286 44.469C36.8887 44.406 36.8079 44.339 36.7488 44.2385L36.6975 44.1517L36.9104 43.8403C37.5233 42.9416 37.8721 42.4923 38.3254 42.0272C38.6565 41.6842 38.8477 41.5266 39.1355 41.3492C39.6715 41.024 40.1603 40.687 41.3132 39.8533C42.2139 39.201 42.4248 39.0532 42.8722 38.7556C43.1816 38.5506 43.2092 38.5348 43.3452 38.5132C43.426 38.5013 43.5048 38.4875 43.5206 38.4836C43.5758 38.4718 43.7472 38.4974 43.8123 38.527ZM26.3447 38.661C26.5575 38.6886 26.6521 38.73 26.8867 38.9034C27.1862 39.1261 27.4858 39.3606 27.9411 39.7351C28.9915 40.5983 29.4172 40.9097 29.9848 41.231C30.2036 41.3551 30.2371 41.3827 30.3297 41.5029C30.6589 41.9424 30.9328 42.5297 31.0491 43.0579C31.0826 43.2077 31.0924 43.32 31.0924 43.5487C31.0944 43.8955 31.0589 44.0453 30.9269 44.2444C30.85 44.3587 30.8422 44.3646 30.7042 44.406C30.3514 44.5144 29.971 44.5636 29.4882 44.5636H29.1768L28.9048 44.473C27.6533 44.0591 26.392 43.2905 25.2115 42.2203C24.7798 41.8281 24.4389 41.495 24.366 41.3906C24.1925 41.1423 24.0743 40.8328 24.0171 40.4741C23.9994 40.352 23.9816 40.08 23.9757 39.7627L23.9639 39.2483L24.0605 39.2246C24.1117 39.2108 24.3029 39.1478 24.4822 39.0808C25.4499 38.73 25.6194 38.6787 25.921 38.6511C26.0865 38.6373 26.1535 38.6373 26.3447 38.661ZM34.1886 44.5834C34.4902 44.609 34.8193 44.6504 35.1938 44.7095C35.3574 44.7371 35.5603 44.7686 35.6471 44.7804C35.9703 44.8297 36.1693 44.9223 36.1417 45.011C36.1181 45.0839 35.9151 45.1529 35.6175 45.1923C35.5367 45.2022 35.3495 45.2298 35.2036 45.2515C35.0578 45.2751 34.7109 45.3145 34.435 45.3421C32.8504 45.4998 31.6995 45.3993 30.8579 45.0268C30.718 44.9637 30.716 44.9657 31.0353 44.8711C31.6246 44.6977 32.1528 44.6109 32.9569 44.5558C33.1303 44.5439 33.9305 44.5617 34.1886 44.5834Z"/>
</mask>
<path d="M32.612 20.6297C31.1575 20.7145 30.0144 20.9431 28.8004 21.3885C27.6829 21.8004 26.4984 22.4804 25.5465 23.2549C23.0494 25.2908 21.3644 28.3515 20.917 31.6645C20.8322 32.2952 20.8086 32.6736 20.8086 33.4185C20.8086 34.1083 20.8184 34.3153 20.8874 34.8967C21.0234 36.0516 21.3092 37.0547 21.8334 38.2116C23.3431 41.5463 26.3585 44.2463 29.7444 45.2988C30.99 45.6851 32.0049 45.8289 33.5186 45.8329C34.3542 45.8348 34.6124 45.8171 35.3317 45.7146C36.8237 45.5018 38.3353 44.9815 39.6814 44.2168C40.9683 43.4856 42.0562 42.5731 43.0298 41.4103C43.152 41.2645 43.2998 41.0871 43.359 41.0181C43.5344 40.8131 43.8359 40.3973 44.0369 40.0898C44.8923 38.7773 45.4973 37.175 45.7457 35.5668C45.8619 34.8198 45.8935 34.3685 45.8935 33.5466C45.8954 32.4331 45.793 31.5383 45.5486 30.5115C44.7898 27.3326 42.7322 24.3566 40.0618 22.575C39.2202 22.0113 38.2032 21.5166 37.273 21.2131C36.8493 21.0732 35.9506 20.8702 35.3909 20.7874C34.9987 20.7283 34.8095 20.7066 34.3562 20.6652C34.0527 20.6376 32.8741 20.614 32.612 20.6297ZM34.435 21.0929C35.0913 21.1422 35.9545 21.3018 36.6108 21.4969C36.8848 21.5777 37.3794 21.7689 37.7164 21.9226C38.5068 22.2872 39.0172 22.7149 39.2872 23.2411C39.3956 23.452 39.3936 23.4953 39.2734 23.8107C38.9738 24.601 38.489 25.3716 37.817 26.1264C37.6691 26.2939 37.6534 26.3058 37.5371 26.3373C37.3676 26.3826 37.1114 26.4102 36.6739 26.4319C36.4669 26.4437 36.2127 26.4615 36.1102 26.4713C35.6352 26.5206 34.4606 26.5876 33.8437 26.6014L33.2821 26.6132L32.9667 26.2821C31.9813 25.2435 31.1003 24.26 30.923 23.9979C30.7613 23.7575 30.7101 23.4579 30.7771 23.1524C30.9013 22.6006 31.4866 21.9206 32.3065 21.3767C32.7302 21.0968 32.7361 21.0949 33.3313 21.0732C33.7294 21.0574 34.0586 21.0653 34.435 21.0929ZM40.3948 23.8797C40.5663 23.925 40.7594 24.0117 41.0866 24.193C41.2502 24.2837 41.4275 24.3802 41.4827 24.4078C41.7409 24.5379 42.4938 25.2927 42.9609 25.8899C43.9325 27.1315 44.6479 28.7141 44.9455 30.2849C45.0145 30.6416 45.0243 30.7855 44.9987 31.0161C44.9278 31.6724 44.6459 32.2183 43.8399 33.2707C43.6093 33.5703 43.6053 33.5762 43.4969 33.6097L43.3866 33.6432L43.1422 33.5328C41.8808 32.9672 40.7358 32.3149 39.8528 31.6625L39.6045 31.4792L39.504 31.2644C39.2281 30.6751 39.0133 30.0701 38.6211 28.7673C38.4634 28.247 38.3038 27.7287 38.2683 27.6144C38.1717 27.3168 38.1579 27.2419 38.1579 26.9956C38.1579 26.7058 38.217 26.4753 38.3727 26.152C38.5127 25.8604 38.6585 25.6376 39.102 25.0444C39.2872 24.7961 39.4922 24.4985 39.5612 24.3842C39.7957 23.9861 39.8568 23.9151 40.0046 23.8698C40.0953 23.8442 40.2707 23.8481 40.3948 23.8797ZM30.107 24.0176C30.381 24.0669 30.6293 24.2265 30.8008 24.467C30.8816 24.5793 31.0412 24.7646 31.3605 25.1114C32.0385 25.8525 32.3045 26.2033 32.5036 26.6191C32.6632 26.9542 32.7164 27.1532 32.7342 27.4784C32.746 27.7011 32.744 27.7129 32.6809 27.8923C32.6474 27.9948 32.5371 28.3081 32.4405 28.59C32.0818 29.6247 31.7133 30.754 31.6147 31.1087L31.5674 31.2821L30.7692 31.7315C29.8824 32.2341 29.3108 32.5474 28.8082 32.8076C28.625 32.9041 28.4298 33.0165 28.3747 33.0598C28.1441 33.2431 27.8366 33.3456 27.5962 33.32C27.4503 33.3042 27.2375 33.2333 27.0916 33.1505C26.8078 32.9889 26.3585 32.579 25.8086 31.9778C25.109 31.2112 24.8843 30.8801 24.772 30.4426L24.7306 30.277L24.7739 30.143C24.7976 30.0701 24.9296 29.6641 25.0656 29.2423C25.2016 28.8206 25.3612 28.3476 25.4184 28.1879C25.9486 26.7275 26.4826 25.8584 27.2375 25.2277C27.5114 25.0011 27.7085 24.8769 28.2347 24.603C29.0566 24.1753 29.3837 24.0491 29.7937 24.0018C29.908 23.9881 29.9533 23.99 30.107 24.0176ZM25.3731 24.8C25.6805 24.9538 25.8973 25.2711 25.9604 25.6652L25.984 25.815L25.852 26.0535C25.1563 27.3227 24.5197 29.0492 24.1669 30.6396C24.0841 31.0082 23.9284 31.2545 23.4377 31.7926C23.2958 31.9503 23.1362 32.1316 23.0869 32.1966C23.0356 32.2616 22.8563 32.4784 22.6868 32.6795C22.4937 32.9101 22.3518 33.0973 22.3045 33.186C22.265 33.2648 22.1961 33.3693 22.1547 33.4166C22.0719 33.5092 21.9044 33.6058 21.8255 33.6058C21.729 33.6058 21.6186 33.5565 21.5378 33.4777C21.3565 33.3023 21.2855 33.0204 21.325 32.6479C21.3368 32.5297 21.3525 32.3346 21.3585 32.2163C21.3742 31.9207 21.4018 31.6605 21.459 31.3018C21.7684 29.3724 22.6395 27.4686 24.1176 25.4859C24.1945 25.3834 24.2871 25.2474 24.3246 25.1844C24.4468 24.9814 24.636 24.8178 24.8331 24.7429C24.8784 24.7271 24.9671 24.7192 25.0656 24.7212C25.2036 24.7271 25.243 24.737 25.3731 24.8ZM32.0424 32.1454C32.7677 32.4587 33.4791 32.9337 34.2379 33.6058C34.4902 33.8285 35.0657 34.3606 35.1484 34.4473L35.2214 34.5222L35.1327 35.212C34.9395 36.7493 34.774 37.7741 34.571 38.6905C34.4626 39.1734 34.3897 39.3114 34.0822 39.6168C33.7491 39.946 33.3629 40.1667 32.6612 40.4288C31.6029 40.823 31.3368 40.8979 31.0176 40.8979C30.7101 40.8979 30.2312 40.7678 29.8725 40.5865C29.5197 40.4111 29.2004 40.1982 28.4909 39.6661C28.2288 39.471 27.943 39.2581 27.8524 39.1931C27.543 38.9684 27.2572 38.6235 27.068 38.2471C26.8847 37.8805 26.8078 37.577 26.794 37.1533C26.7822 36.836 26.8039 36.6172 26.8748 36.3058C26.9024 36.1915 26.934 35.9925 26.9458 35.8624C27.0562 34.6937 27.539 33.86 28.3352 33.4619C28.4121 33.4244 28.552 33.3653 28.6486 33.3318C28.8713 33.253 29.0684 33.1604 29.4291 32.9652C30.4164 32.4311 30.6786 32.307 31.0846 32.1887C31.3112 32.1217 31.5852 32.0724 31.7566 32.0705C31.8433 32.0685 31.9025 32.0843 32.0424 32.1454ZM40.0164 32.3898C41.4315 33.0795 42.2671 33.588 43.0436 34.2285L43.2506 34.398L43.2368 34.5202C43.2309 34.5853 43.2033 34.9105 43.1757 35.2416C43.0732 36.5049 43.02 36.9404 42.8978 37.508C42.813 37.9022 42.5963 38.251 42.1804 38.6728C41.8079 39.0492 41.5655 39.2286 40.4224 39.9814C40.1918 40.1332 39.8962 40.3382 39.7661 40.4347C39.234 40.8348 38.8497 41.0417 38.5481 41.093C38.422 41.1147 38.4003 41.1127 38.1914 41.0575C37.2967 40.819 36.3585 40.3421 35.2825 39.5814C35.0519 39.4178 34.9671 39.3468 34.9671 39.3173C34.9671 39.2503 35.0637 38.5329 35.1366 38.05C35.2214 37.4942 35.5367 35.5943 35.5485 35.5766C35.5525 35.5687 35.5801 35.3913 35.6076 35.1805C35.7003 34.4788 35.7377 34.404 36.1989 34.0591C36.3191 33.9684 36.597 33.7477 36.8197 33.5683C37.3499 33.1387 37.5923 32.9514 37.8446 32.7819C38.4299 32.3898 38.9305 32.1887 39.4547 32.1296C39.4666 32.1296 39.7208 32.2459 40.0164 32.3898ZM21.7507 34.2207C21.7566 34.2463 21.7822 34.4118 21.8118 34.5912C21.9753 35.62 22.3064 36.7512 22.7499 37.7938C22.9016 38.1545 23.2958 38.9566 23.3825 39.0788C23.5343 39.3015 23.5757 39.6227 23.4968 39.9795C23.4751 40.076 23.4554 40.1588 23.4515 40.1628C23.4416 40.1726 22.9726 39.3862 22.7676 39.0177C22.5351 38.5999 22.202 37.9061 22.0522 37.5277C21.8571 37.037 21.5536 35.9964 21.4432 35.4386C21.4077 35.2573 21.3979 35.145 21.3979 34.877C21.3979 34.5557 21.3998 34.538 21.4491 34.4335C21.5102 34.3074 21.5674 34.2423 21.6521 34.2049C21.7349 34.1694 21.7408 34.1714 21.7507 34.2207ZM43.8123 38.527C44.0015 38.6156 44.0369 38.8955 43.9049 39.2522C43.8182 39.4868 43.7275 39.6385 43.286 40.2968C42.5647 41.3729 41.5419 42.3642 40.2983 43.1979C39.4804 43.7438 38.3787 44.3212 37.884 44.4612C37.7204 44.5065 37.6593 44.5124 37.411 44.5144C37.1548 44.5144 37.1153 44.5104 37.0286 44.469C36.8887 44.406 36.8079 44.339 36.7488 44.2385L36.6975 44.1517L36.9104 43.8403C37.5233 42.9416 37.8721 42.4923 38.3254 42.0272C38.6565 41.6842 38.8477 41.5266 39.1355 41.3492C39.6715 41.024 40.1603 40.687 41.3132 39.8533C42.2139 39.201 42.4248 39.0532 42.8722 38.7556C43.1816 38.5506 43.2092 38.5348 43.3452 38.5132C43.426 38.5013 43.5048 38.4875 43.5206 38.4836C43.5758 38.4718 43.7472 38.4974 43.8123 38.527ZM26.3447 38.661C26.5575 38.6886 26.6521 38.73 26.8867 38.9034C27.1862 39.1261 27.4858 39.3606 27.9411 39.7351C28.9915 40.5983 29.4172 40.9097 29.9848 41.231C30.2036 41.3551 30.2371 41.3827 30.3297 41.5029C30.6589 41.9424 30.9328 42.5297 31.0491 43.0579C31.0826 43.2077 31.0924 43.32 31.0924 43.5487C31.0944 43.8955 31.0589 44.0453 30.9269 44.2444C30.85 44.3587 30.8422 44.3646 30.7042 44.406C30.3514 44.5144 29.971 44.5636 29.4882 44.5636H29.1768L28.9048 44.473C27.6533 44.0591 26.392 43.2905 25.2115 42.2203C24.7798 41.8281 24.4389 41.495 24.366 41.3906C24.1925 41.1423 24.0743 40.8328 24.0171 40.4741C23.9994 40.352 23.9816 40.08 23.9757 39.7627L23.9639 39.2483L24.0605 39.2246C24.1117 39.2108 24.3029 39.1478 24.4822 39.0808C25.4499 38.73 25.6194 38.6787 25.921 38.6511C26.0865 38.6373 26.1535 38.6373 26.3447 38.661ZM34.1886 44.5834C34.4902 44.609 34.8193 44.6504 35.1938 44.7095C35.3574 44.7371 35.5603 44.7686 35.6471 44.7804C35.9703 44.8297 36.1693 44.9223 36.1417 45.011C36.1181 45.0839 35.9151 45.1529 35.6175 45.1923C35.5367 45.2022 35.3495 45.2298 35.2036 45.2515C35.0578 45.2751 34.7109 45.3145 34.435 45.3421C32.8504 45.4998 31.6995 45.3993 30.8579 45.0268C30.718 44.9637 30.716 44.9657 31.0353 44.8711C31.6246 44.6977 32.1528 44.6109 32.9569 44.5558C33.1303 44.5439 33.9305 44.5617 34.1886 44.5834Z" fill="#085E3B" stroke="#DCDADA" stroke-width="0.458333" mask="url(#path-4-inside-1_102_11)"/>
</svg>
