<svg width="35" height="34" viewBox="0 0 35 34" fill="none" xmlns="http://www.w3.org/2000/svg">
<path d="M8.16066 16.9016C8.16066 14.4851 9.12063 12.1675 10.8294 10.4588C12.5381 8.75001 14.8557 7.79004 17.2723 7.79004C19.6888 7.79004 22.0064 8.75001 23.7151 10.4588C25.4239 12.1675 26.3839 14.4851 26.3839 16.9016C26.3839 19.8174 25.0101 22.4247 22.8794 24.0928H22.8654C21.3234 25.2983 19.389 26.0133 17.2723 26.0133C15.1836 26.0133 13.2632 25.3124 11.7212 24.1208H11.7072C10.6019 23.2702 9.70717 22.1766 9.09219 20.9248C8.47721 19.6729 8.15848 18.2964 8.16066 16.9016Z" fill="#085E3B" stroke="white" stroke-width="2.10268" stroke-linecap="round" stroke-linejoin="round"/>
<path d="M17.2725 13.6221V17.5331L19.235 19.4956" stroke="white" stroke-width="2.10268" stroke-linecap="round" stroke-linejoin="round"/>
<path d="M11.707 24.1208H11.721C13.263 25.3124 15.1835 26.0133 17.2721 26.0133C19.3888 26.0133 21.3233 25.2983 22.8652 24.0928H22.8793L22.1644 27.5552C21.4775 30.2186 19.9355 30.9195 18.0431 30.9195H16.5152C14.6227 30.9195 13.0668 30.2186 12.3939 27.5412L11.707 24.1208ZM11.707 9.68245H11.721C13.263 8.49093 15.1835 7.79004 17.2721 7.79004C19.3888 7.79004 21.3233 8.50495 22.8652 9.71049H22.8793L22.1644 6.24807C21.4775 3.58468 19.9355 2.88379 18.0431 2.88379H16.5152C14.6227 2.88379 13.0668 3.58468 12.3939 6.26209L11.707 9.68245Z" fill="#085E3B" stroke="white" stroke-width="2.10268" stroke-linecap="round" stroke-linejoin="round"/>
</svg>
