<svg width="20" height="20" viewBox="0 0 20 20" fill="none" xmlns="http://www.w3.org/2000/svg">
<g clip-path="url(#clip0_102_36)">
<path d="M12.4998 18.3337H7.49984C3.33317 18.3337 1.6665 16.667 1.6665 12.5003V10.0003V7.50033C1.6665 3.33366 3.33317 1.66699 7.49984 1.66699H12.4998C16.6665 1.66699 18.3332 3.33366 18.3332 7.50033V12.5003C18.3332 16.667 16.6665 18.3337 12.4998 18.3337Z" stroke="white" stroke-width="1.5" stroke-linecap="round" stroke-linejoin="round"/>
<path d="M1.49219 10H18.3301" stroke="white" stroke-width="0.474308"/>
<path d="M7.67773 10.0007C7.67773 11.2884 8.72677 12.3322 10.0144 12.3322C11.3078 12.3322 12.3615 11.2837 12.3615 9.99033C12.3615 8.69694 11.313 7.64844 10.0196 7.64844C8.72624 7.64844 7.67773 8.7073 7.67773 10.0007Z" stroke="white" stroke-width="0.474308"/>
<path d="M6.84766 4.30828V1.73911C6.84766 1.60813 6.95383 1.50195 7.08481 1.50195H12.737C12.868 1.50195 12.9741 1.60813 12.9741 1.73911V4.30828C12.9741 4.43925 12.868 4.54543 12.737 4.54543H7.08481C6.95383 4.54543 6.84766 4.43925 6.84766 4.30828Z" stroke="white" stroke-width="0.474308"/>
<path d="M6.94678 15.5335V18.1027C6.94678 18.2337 7.05295 18.3398 7.18393 18.3398H12.8361C12.9671 18.3398 13.0733 18.2337 13.0733 18.1027V15.5335C13.0733 15.4025 12.9671 15.2964 12.8361 15.2964H7.18393C7.05295 15.2964 6.94678 15.4025 6.94678 15.5335Z" stroke="white" stroke-width="0.474308"/>
<path d="M8.25098 3.01445V1.62977C8.25098 1.55918 8.3082 1.50195 8.37879 1.50195H11.4251C11.4957 1.50195 11.5529 1.55918 11.5529 1.62977V3.01445C11.5529 3.08504 11.4957 3.14227 11.4251 3.14227H8.37879C8.3082 3.14227 8.25098 3.08504 8.25098 3.01445Z" stroke="white" stroke-width="0.255634"/>
<path d="M8.34961 16.8273V18.212C8.34961 18.2826 8.40684 18.3398 8.47743 18.3398H11.5237C11.5943 18.3398 11.6515 18.2826 11.6515 18.212V16.8273C11.6515 16.7568 11.5943 16.6995 11.5237 16.6995H8.47743C8.40683 16.6995 8.34961 16.7568 8.34961 16.8273Z" stroke="white" stroke-width="0.255634"/>
<path d="M8.9624 4.5459V4.59423C8.9624 5.11327 9.38317 5.53404 9.90221 5.53404V5.53404C10.4213 5.53404 10.842 5.11327 10.842 4.59423V4.5459" stroke="white" stroke-width="0.257776"/>
<path d="M9.06104 15.2969V15.2485C9.06104 14.7295 9.4818 14.3087 10.0008 14.3087V14.3087C10.5199 14.3087 10.9407 14.7295 10.9407 15.2485V15.2969" stroke="white" stroke-width="0.257776"/>
</g>
<defs>
<clipPath id="clip0_102_36">
<rect width="20" height="20" fill="white"/>
</clipPath>
</defs>
</svg>
