<svg xmlns="http://www.w3.org/2000/svg" version="1.1" xmlns:xlink="http://www.w3.org/1999/xlink" xmlns:svgjs="http://svgjs.com/svgjs" width="1440" height="560" preserveAspectRatio="none" viewBox="0 0 1440 560"><g mask="url(&quot;#SvgjsMask1003&quot;)" fill="none"><rect width="1440" height="560" x="0" y="0" fill="rgba(209, 209, 209, 1)"></rect><path d="M 0,152 C 57.6,129 172.8,36.6 288,37 C 403.2,37.4 460.8,151.8 576,154 C 691.2,156.2 748.8,26 864,48 C 979.2,70 1036.8,248 1152,264 C 1267.2,280 1382.4,155.2 1440,128L1440 560L0 560z" fill="rgba(233, 233, 233, 1)"></path><path d="M 0,287 C 96,327.8 288,487.8 480,491 C 672,494.2 768,304.6 960,303 C 1152,301.4 1344,447 1440,483L1440 560L0 560z" fill="rgba(243, 243, 243, 1)"></path></g><defs><mask id="SvgjsMask1003"><rect width="1440" height="560" fill="#ffffff"></rect></mask></defs></svg>